:SAMPLES-PER-SECOND 30
:FULLY-SPECIFIED
:DEGREES
321
root  37.41 39.0307 -7.72649 0.202118 -22.1435 0.780469
RightUpLeg  -20.9369 -16.2885 6.86722
RightLeg  19.1317 10.4606 -3.04092
RightFoot  -3.26636 0.430614 -4.92242
RightToes  -5.82073e-011 -3.18055e-015 -2.98177e-016
Spine  8.77815 -1.58219 -8.85322
Spine1  2.95264 -4.05574 9.37235
HEad  -13.2846 6.13981 5.1955
LeftShoulder1  -3.88251e-019 9.70628e-020 -3.87848e-018
LeftArm  -17.9196 41.8275 -60.5744
LeftForeArm  -17.4633 -45.8187 10.8105
LeftHand  -0.327912 -5.27116 3.85446
RightShoulder  7.30888 10.2048 35.1407
RightArm  22.9437 -45.249 16.6486
RightForeArm  11.9662 25.2298 -13.6959
RightHand  -0.583957 -0.371209 -13.1761
LeftUpLeg  5.57018 7.93503 -0.475039
LeftLeg  15.1794 19.0498 6.5238
LeftFoot  -12.9587 -0.0295445 -6.67468
LeftToes  1.2018e-011 -3.94675e-011 -1.33631e-011
322
root  36.7972 38.8526 -6.88997 0.148285 -25.1412 -0.0245164
RightUpLeg  -20.1107 -11.7272 7.4547
RightLeg  21.5189 8.86603 -4.01417
RightFoot  -4.58169 0.427178 -5.5251
RightToes  -5.82073e-011 -3.18055e-015 -2.98177e-016
Spine  8.43726 -1.08429 -6.37686
Spine1  3.83724 -3.16017 8.03373
HEad  -13.0236 6.55942 5.18437
LeftShoulder1  -3.88251e-019 9.70628e-020 -3.87848e-018
LeftArm  -14.9476 45.7634 -64.1332
LeftForeArm  -16.9636 -37.311 7.86857
LeftHand  0.121584 -6.39631 -1.28885
RightShoulder  7.57756 10.3656 36.1515
RightArm  14.8266 -47.2224 12.7927
RightForeArm  15.2298 17.0291 -7.72605
RightHand  -0.510364 -1.35066 -14.0829
LeftUpLeg  7.19889 14.0951 1.57208
LeftLeg  16.7658 14.6365 8.12218
LeftFoot  -13.5795 -0.0796021 -9.71498
LeftToes  1.2018e-011 -3.94675e-011 -1.33631e-011
323
root  36.1136 38.726 -6.10698 0.44928 -26.6496 -1.0757
RightUpLeg  -19.157 -9.28409 8.44971
RightLeg  23.564 8.23349 -4.63102
RightFoot  -6.90552 0.314733 -5.39105
RightToes  -5.82073e-011 -3.18055e-015 -2.98177e-016
Spine  8.68341 -1.19683 -4.6028
Spine1  3.99411 -3.08217 7.90487
HEad  -12.3539 6.70624 4.76218
LeftShoulder1  -3.88251e-019 9.70628e-020 -3.87848e-018
LeftArm  -17.4173 49.9464 -68.4127
LeftForeArm  -15.9975 -27.7501 4.28789
LeftHand  0.331466 -1.43813 -5.63167
RightShoulder  7.78443 10.5015 36.8868
RightArm  9.30974 -49.3007 7.55611
RightForeArm  16.4751 11.8924 -4.96757
RightHand  -0.288101 -2.65975 -11.3097
LeftUpLeg  6.45139 17.4261 3.58435
LeftLeg  21.6284 10.4391 11.623
LeftFoot  -12.1351 0.119377 -15.215
LeftToes  1.2018e-011 -3.94675e-011 -1.33631e-011
324
root  35.4026 38.7431 -5.35518 1.34109 -27.1107 -2.0019
RightUpLeg  -17.8815 -9.07984 9.63468
RightLeg  23.4934 8.35533 -4.58592
RightFoot  -8.71792 0.235886 -5.40117
RightToes  -5.82073e-011 -3.18055e-015 -2.98177e-016
Spine  8.90022 -1.76366 -3.63266
Spine1  3.44014 -3.58321 8.73188
HEad  -11.2018 7.14121 4.03497
LeftShoulder1  -3.88251e-019 9.70628e-020 -3.87848e-018
LeftArm  -30.4222 54.5056 -72.8533
LeftForeArm  -7.79005 -17.6352 -0.837747
LeftHand  0.0745272 2.32463 -4.37132
RightShoulder  7.79189 10.5192 36.8828
RightArm  10.7653 -51.7382 2.53789
RightForeArm  16.5957 9.16413 -4.983
RightHand  -0.152982 -3.32867 -7.9058
LeftUpLeg  2.4374 14.4673 4.24872
LeftLeg  30.3632 12.6202 17.2647
LeftFoot  -6.54241 0.970429 -17.6567
LeftToes  1.2018e-011 -3.94675e-011 -1.33631e-011
325
root  34.7059 38.8585 -4.59748 2.42529 -27.3497 -2.62314
RightUpLeg  -16.3165 -9.10088 10.4942
RightLeg  22.2461 8.33804 -4.26229
RightFoot  -9.72523 0.195263 -5.49926
RightToes  -5.82073e-011 -3.18055e-015 -2.98177e-016
Spine  9.00683 -2.31361 -2.50465
Spine1  2.45988 -3.89546 8.81945
HEad  -9.57567 8.058 3.14341
LeftShoulder1  -3.88251e-019 9.70628e-020 -3.87848e-018
LeftArm  -39.6071 59.3366 -78.0145
LeftForeArm  -9.10104 -9.22414 -1.01593
LeftHand  -0.114984 1.64276 3.50027
RightShoulder  7.67701 10.4651 36.4293
RightArm  13.4202 -54.3146 -1.84318
RightForeArm  19.4543 8.22668 -5.22287
RightHand  -0.193847 -2.32964 -6.76965
LeftUpLeg  -3.56859 12.2859 4.18601
LeftLeg  40.0417 13.1656 24.2737
LeftFoot  1.30718 1.57142 -12.6072
LeftToes  1.2018e-011 -3.94675e-011 -1.33631e-011
326
root  34.0948 38.8969 -3.86101 3.14468 -27.8339 -3.28076
RightUpLeg  -14.6593 -6.72701 10.8504
RightLeg  21.7369 6.4904 -4.21886
RightFoot  -10.8499 0.140182 -5.22956
RightToes  -5.82073e-011 -3.18055e-015 -2.98177e-016
Spine  9.34234 -2.61451 0.00839064
Spine1  1.92212 -3.57944 7.4065
HEad  -7.68557 7.40866 3.65169
LeftShoulder1  -3.88251e-019 9.70628e-020 -3.87848e-018
LeftArm  -47.6525 64.1939 -83.5163
LeftForeArm  -15.3323 -5.20446 -0.118038
LeftHand  -0.22958 2.0202 9.34745
RightShoulder  7.64416 10.4599 36.2754
RightArm  15.8062 -56.2986 -4.97138
RightForeArm  20.2142 8.34044 -5.30055
RightHand  -0.27277 -1.02583 -6.94585
LeftUpLeg  -9.61468 10.6097 3.92152
LeftLeg  48.2934 8.95883 27.5474
LeftFoot  5.12049 0.76836 -4.46845
LeftToes  1.2018e-011 -3.94675e-011 -1.33631e-011
327
root  33.5504 38.8668 -3.1227 3.23264 -28.7471 -3.68726
RightUpLeg  -12.8699 -2.70329 10.8
RightLeg  21.8654 3.49982 -4.57846
RightFoot  -12.444 0.0686423 -4.60008
RightToes  -5.82073e-011 -3.18055e-015 -2.98177e-016
Spine  9.68775 -2.462 3.10624
Spine1  2.34534 -2.6053 5.07571
HEad  -6.25057 5.74488 4.50774
LeftShoulder1  -3.88251e-019 9.70628e-020 -3.87848e-018
LeftArm  -54.9336 68.5346 -88.6882
LeftForeArm  -20.6833 -4.46231 0.738031
LeftHand  -0.00649137 5.31287 8.25825
RightShoulder  7.76648 10.5348 36.7201
RightArm  16.8433 -57.2436 -6.16052
RightForeArm  17.5745 9.17113 -5.29966
RightHand  -0.268255 -0.781339 -6.46672
LeftUpLeg  -14.4588 9.57822 3.3437
LeftLeg  53.9688 2.58746 25.3286
LeftFoot  2.69001 0.0579479 -0.399547
LeftToes  1.2018e-011 -3.94675e-011 -1.33631e-011
328
root  32.9999 38.8698 -2.32021 3.15228 -29.9562 -3.54761
RightUpLeg  -10.9961 0.217886 10.5099
RightLeg  21.5797 1.68007 -4.73989
RightFoot  -13.8952 0.018639 -3.96824
RightToes  -5.82073e-011 -3.18055e-015 -2.98177e-016
Spine  9.57256 -1.75851 5.63952
Spine1  3.08263 -1.18606 2.8161
HEad  -4.76591 3.4736 4.73111
LeftShoulder1  -3.88251e-019 9.70628e-020 -3.87848e-018
LeftArm  -59.8303 72.214 -92.4798
LeftForeArm  -20.7119 -4.76583 1.08289
LeftHand  0.0565351 7.00345 4.00727
RightShoulder  7.90295 10.6062 37.2392
RightArm  16.6459 -57.4459 -5.4892
RightForeArm  14.4681 10.4398 -5.41691
RightHand  -0.229693 -1.21934 -6.08046
LeftUpLeg  -18.5943 9.3201 2.19418
LeftLeg  56.8068 -1.2589 22.0986
LeftFoot  -1.52666 0.120129 -1.28955
LeftToes  1.2018e-011 -3.94675e-011 -1.33631e-011
329
root  32.4101 38.9127 -1.4521 3.36075 -31.0242 -3.13504
RightUpLeg  -9.16289 1.4996 10.0618
RightLeg  20.7092 1.36265 -4.31123
RightFoot  -14.8643 -0.00722039 -3.66831
RightToes  -5.82073e-011 -3.18055e-015 -2.98177e-016
Spine  9.03 -0.700147 7.46556
Spine1  3.2707 0.282304 1.04243
HEad  -2.70361 0.683534 4.25539
LeftShoulder1  -3.88251e-019 9.70628e-020 -3.87848e-018
LeftArm  -62.0177 75.4812 -94.5789
LeftForeArm  -16.2614 -5.34143 0.835499
LeftHand  -0.0195257 5.02591 1.39625
RightShoulder  7.90633 10.6016 37.266
RightArm  16.2811 -57.2266 -3.60693
RightForeArm  12.8683 11.9716 -5.51879
RightHand  -0.265257 -1.28379 -7.11788
LeftUpLeg  -22.6624 9.55941 0.574664
LeftLeg  56.2868 -0.918628 22.0922
LeftFoot  -3.6214 0.250864 -3.10459
LeftToes  1.2018e-011 -3.94675e-011 -1.33631e-011
330
root  31.8013 38.9246 -0.575246 3.55255 -31.6301 -2.87334
RightUpLeg  -7.08448 1.8285 9.81804
RightLeg  19.6142 1.62768 -3.78529
RightFoot  -15.8884 -0.0382262 -3.74934
RightToes  -5.82073e-011 -3.18055e-015 -2.98177e-016
Spine  8.56212 0.29046 8.91662
Spine1  3.27118 1.45195 -0.259919
HEad  -1.09005 -1.96523 3.63314
LeftShoulder1  -3.88251e-019 9.70628e-020 -3.87848e-018
LeftArm  -62.2549 78.211 -95.3075
LeftForeArm  -12.1273 -6.48159 0.279235
LeftHand  -0.0376245 2.94505 1.41181
RightShoulder  7.82673 10.5568 36.9717
RightArm  16.354 -56.2885 -0.660842
RightForeArm  11.7431 13.8349 -5.59066
RightHand  -0.362737 -0.817307 -8.88782
LeftUpLeg  -25.9388 9.51597 -0.879257
LeftLeg  52.8004 2.04516 23.4758
LeftFoot  -4.88254 0.147743 -2.17142
LeftToes  1.2018e-011 -3.94675e-011 -1.33631e-011
331
root  31.1822 38.8879 0.297236 3.06107 -31.8355 -2.60101
RightUpLeg  -4.26816 1.65952 9.70463
RightLeg  18.4232 1.79552 -3.60798
RightFoot  -17.402 -0.0757119 -3.6027
RightToes  -5.82073e-011 -3.18055e-015 -2.98177e-016
Spine  8.37996 0.950368 9.92783
Spine1  4.07138 2.25282 -1.26377
HEad  -0.959271 -4.05475 3.34095
LeftShoulder1  -3.88251e-019 9.70628e-020 -3.87848e-018
LeftArm  -60.3159 79.9602 -93.7183
LeftForeArm  -10.4483 -7.85687 -0.174497
LeftHand  -0.0554022 2.5154 2.17931
RightShoulder  7.79001 10.5393 36.8281
RightArm  17.0866 -54.2974 3.52073
RightForeArm  9.15368 16.0509 -6.2168
RightHand  -0.465936 -0.319366 -10.3789
LeftUpLeg  -27.29 8.75549 -1.7399
LeftLeg  46.6198 4.0153 21.1399
LeftFoot  -7.34324 0.0322178 -1.17709
LeftToes  1.2018e-011 -3.94675e-011 -1.33631e-011
332
root  30.5396 38.8168 1.2025 1.9064 -31.8868 -1.93031
RightUpLeg  -1.09545 1.12615 9.24069
RightLeg  17.5761 2.12724 -3.65153
RightFoot  -19.0512 -0.0804562 -2.78815
RightToes  -5.82073e-011 -3.18055e-015 -2.98177e-016
Spine  8.24662 1.35647 10.4193
Spine1  5.56657 2.89118 -2.43902
HEad  -1.59729 -5.93136 3.53346
LeftShoulder1  -3.88251e-019 9.70628e-020 -3.87848e-018
LeftArm  -54.2976 80.5967 -87.4551
LeftForeArm  -10.0756 -8.52897 -0.331227
LeftHand  -0.0858464 1.88351 2.96754
RightShoulder  7.79278 10.5383 36.8442
RightArm  19.5636 -51.7966 8.11692
RightForeArm  3.55306 18.6109 -8.16862
RightHand  -0.561276 -0.102767 -12.0214
LeftUpLeg  -26.7733 7.39505 -2.3808
LeftLeg  38.09 2.27912 14.4971
LeftFoot  -9.69967 0.0719229 -3.25944
LeftToes  1.2018e-011 -3.94675e-011 -1.33631e-011
333
root  29.8784 38.6787 2.15822 0.717834 -32.0318 -0.928945
RightUpLeg  1.41269 0.475325 8.37329
RightLeg  17.9048 2.90829 -3.85836
RightFoot  -20.7305 -0.0799735 -2.21215
RightToes  -5.82073e-011 -3.18055e-015 -2.98177e-016
Spine  8.0698 1.71971 10.7204
Spine1  6.67944 3.64926 -4.26344
HEad  -1.57766 -7.94869 4.09522
LeftShoulder1  -3.88251e-019 9.70628e-020 -3.87848e-018
LeftArm  -44.1595 80.285 -76.6385
LeftForeArm  -10.2861 -8.24757 -0.359175
LeftHand  -0.12606 1.03587 3.63896
RightShoulder  7.76686 10.5202 36.7555
RightArm  23.8802 -49.8979 11.3938
RightForeArm  -4.53959 22.2546 -11.4824
RightHand  -0.652206 -0.18117 -14.1782
LeftUpLeg  -25.5528 5.52895 -3.18342
LeftLeg  29.9266 -2.22586 8.05105
LeftFoot  -9.62728 0.128182 -5.08528
LeftToes  1.2018e-011 -3.94675e-011 -1.33631e-011
334
root  29.2184 38.4885 3.12277 -0.403381 -32.4353 0.307351
RightUpLeg  3.13709 -0.675459 7.17086
RightLeg  19.2289 4.12761 -4.312
RightFoot  -22.8367 -0.144334 -2.58746
RightToes  -5.82073e-011 -3.18055e-015 -2.98177e-016
Spine  8.19764 2.06777 10.6348
Spine1  7.13636 4.55613 -6.63714
HEad  -0.826313 -9.75752 4.80872
LeftShoulder1  -3.88251e-019 9.70628e-020 -3.87848e-018
LeftArm  -34.0856 79.1518 -65.832
LeftForeArm  -11.0276 -7.76215 -0.435902
LeftHand  -0.123936 1.52212 4.05726
RightShoulder  7.73077 10.5021 36.6158
RightArm  25.989 -48.9708 12.2934
RightForeArm  -9.87666 28.4352 -14.8603
RightHand  -0.778784 0.0628624 -16.186
LeftUpLeg  -24.6249 3.29623 -4.17985
LeftLeg  26.0282 -5.83315 5.05076
LeftFoot  -7.58584 0.126829 -3.19674
LeftToes  1.2018e-011 -3.94675e-011 -1.33631e-011
335
root  28.5709 38.2775 4.07699 -1.8024 -33.0824 1.66605
RightUpLeg  4.22475 -3.01526 5.50316
RightLeg  22.07 6.14395 -4.95312
RightFoot  -25.1485 -0.119962 -2.01714
RightToes  -5.82073e-011 -3.18055e-015 -2.98177e-016
Spine  8.83721 2.20954 9.8641
Spine1  7.60625 5.28679 -8.72135
HEad  -0.389765 -10.738 5.56189
LeftShoulder1  -3.88251e-019 9.70628e-020 -3.87848e-018
LeftArm  -28.211 77.4607 -59.3958
LeftForeArm  -11.5661 -7.84727 -0.503663
LeftHand  -0.115568 2.5339 5.10298
RightShoulder  7.74679 10.513 36.6713
RightArm  27.1247 -48.5471 11.9313
RightForeArm  -13.8413 36.1714 -19.3103
RightHand  -1.10391 1.54519 -18.0942
LeftUpLeg  -23.7959 1.35603 -5.18009
LeftLeg  27.2407 -6.77459 4.78861
LeftFoot  -6.40626 -0.0349911 0.402301
LeftToes  1.2018e-011 -3.94675e-011 -1.33631e-011
